<svg width="47" height="42" viewBox="0 0 47 42" fill="none" xmlns="http://www.w3.org/2000/svg">
<path d="M14.2662 33.2004C13.7584 38.516 15.8853 40.3047 17.3794 40.6602C19.9181 41.2642 20.5528 39.845 20.5528 39.845C20.5528 39.845 23.0915 35.0126 23.7262 33.2004L30.7076 32.8076L37.7491 33.2004C38.1723 34.6099 39.2724 37.912 40.2878 39.845C41.3033 41.7779 43.4136 40.7737 44.0959 40.449C45.3652 39.845 45.9999 36.8247 45.9999 34.4085C45.9999 31.3883 45.3652 24.7437 42.1919 21.1195C39.6532 18.2201 36.9029 19.9114 35.8451 21.1195L25.0557 21.1195C24.6326 20.3141 22.6375 18.8285 19.9181 20.1226C17.1988 21.4167 14.9009 26.5559 14.2662 33.2004Z" fill="#858585" stroke="#858585" stroke-width="0.5" stroke-linecap="round"/>
<path d="M1.05746 9.88851C1.05746 6.92555 3.3851 6.18486 5.32473 6.18481C9.04887 6.18481 9.59194 8.90085 9.59194 9.88851V28.7773C9.59194 30.2588 8.81611 32.8513 5.71265 32.8513C1.83334 32.8513 1.05748 29.8884 1.05748 28.7773C0.928165 23.2218 1.05746 12.8515 1.05746 9.88851Z" fill="#858585" stroke="#858585" stroke-linecap="round"/>
<path d="M4.4914 13.9634V11.7412H6.43106V13.9634H8.75864V15.8153H6.43106V18.0375H4.4914V15.8153H2.16382V13.9634H4.4914Z" fill="white" stroke="#858585" stroke-linecap="round"/>
<rect x="2.55151" y="22.4812" width="2.32759" height="1.48148" fill="white"/>
<rect x="6.43103" y="22.4812" width="2.32759" height="1.48148" fill="white"/>
<rect x="2.55151" y="24.7039" width="2.32759" height="1.48148" fill="white"/>
<rect x="6.43103" y="24.7039" width="2.32759" height="1.48148" fill="white"/>
<path d="M18.9629 17.7597C17.8347 17.7597 16.7757 18.8115 16.0919 19.7533C15.749 20.2255 15.0888 20.4 14.6849 19.9787C13.6874 18.9386 12.7915 17.1149 13.984 14.8506C14.4946 13.7597 15.899 11.5779 17.4309 11.5779C17.9416 7.82038 21.2609 0.450707 30.4529 1.03252C39.2618 0.668878 43.4321 7.98314 42.6661 11.7407C42.6162 11.9852 44.7 12.318 45.6663 14.7037C46.2233 16.0787 46.0118 17.8807 45.5524 19.4618C45.344 20.1792 44.4607 20.2995 44.0874 19.6525C43.4119 18.4816 43.0026 17.5684 40.7938 17.0325V12.3052C40.2832 9.1537 37.5 2.85069 30.4529 2.85069C23.4057 2.85069 20.3673 8.66886 19.7289 11.5779L18.9629 17.7597Z" fill="#858585" stroke="#858585" stroke-linecap="round"/>
</svg>
