<svg width="51" height="38" viewBox="0 0 51 38" fill="none" xmlns="http://www.w3.org/2000/svg">
<path d="M2.11319 23.6552C1.36301 32.0685 4.50538 34.8995 6.71304 35.4622C10.464 36.4183 11.4018 34.1719 11.4018 34.1719C11.4018 34.1719 15.1527 26.5234 16.0904 23.6552L26.4055 23.0334L36.8094 23.6552C37.4346 25.886 39.06 31.1125 40.5604 34.1719C42.0608 37.2313 45.1788 35.6418 46.1868 35.128C48.0623 34.1719 49 29.3916 49 25.5673C49 20.787 48.0623 10.2702 43.3736 4.53388C39.6227 -0.0552125 35.5591 2.62175 33.9962 4.53386L18.0547 4.53388C17.4296 3.25913 14.4819 0.907866 10.464 2.95606C6.44614 5.00426 3.05093 13.1385 2.11319 23.6552Z" stroke="#858585" stroke-width="3" stroke-linecap="round"/>
</svg>
