<svg width="48" height="36" viewBox="0 0 48 36" fill="none" xmlns="http://www.w3.org/2000/svg">
<path d="M2.10597 22.3813C1.40367 30.2998 4.34546 32.9643 6.41221 33.4939C9.92374 34.3937 10.8017 32.2795 10.8017 32.2795C10.8017 32.2795 14.3131 25.0808 15.191 22.3813L24.8477 21.7961L34.5876 22.3813C35.1728 24.4809 36.6945 29.4 38.0991 32.2795C39.5037 35.1589 42.4227 33.6629 43.3664 33.1793C45.1221 32.2795 46 27.7803 46 24.181C46 19.6819 45.1221 9.78376 40.7327 4.38483C37.2212 0.0656822 33.4171 2.58517 31.9539 4.38481L17.03 4.38483C16.4447 3.18506 13.6851 0.972109 9.92374 2.89982C6.16234 4.82754 2.98385 12.4833 2.10597 22.3813Z" stroke="#858585" stroke-width="3" stroke-linecap="round"/>
</svg>
