<svg width="45" height="47" viewBox="0 0 45 47" fill="none" xmlns="http://www.w3.org/2000/svg">
<path d="M22.5 14.7714L17.6123 9.09945C16.316 7.59606 14.5582 6.75182 12.7255 6.75245C10.8928 6.75309 9.13538 7.59854 7.83985 9.10283C6.54433 10.6071 5.81682 12.647 5.81737 14.7738C5.81791 16.9005 6.54647 18.9399 7.84276 20.4433L22.5 37.9438L37.1572 20.4365C37.8276 19.6998 38.364 18.8146 38.7346 17.8333C39.1053 16.852 39.3027 15.7944 39.3151 14.723C39.3276 13.6517 39.155 12.5883 38.8074 11.5957C38.4597 10.6031 37.9442 9.70139 37.2913 8.94388C36.6383 8.18637 35.8611 7.5884 35.0056 7.1853C34.1502 6.78221 33.2338 6.58216 32.3106 6.59698C31.3873 6.61179 30.476 6.84117 29.6305 7.27157C28.785 7.70197 28.0224 8.32465 27.3877 9.10283L22.5 14.7714ZM22.5 47L3.72896 25.2171C1.34162 22.4472 0.000272845 18.6902 4.16201e-08 14.7726C-0.000272762 10.8549 1.34055 7.09767 3.72751 4.32728C6.11447 1.55688 9.35203 0.000316623 12.728 4.82981e-08C16.1039 -0.000316526 19.3417 1.55564 21.729 4.32559L22.5 5.22364L23.271 4.32559C25.6583 1.55564 28.8961 -0.000316526 32.272 4.82981e-08C35.648 0.000316623 38.8855 1.55688 41.2725 4.32728C43.6595 7.09767 45.0003 10.8549 45 14.7726C44.9997 18.6902 43.6584 22.4472 41.271 25.2171L22.5 47Z" fill="white"/>
</svg>
