<svg width="15" height="14" viewBox="0 0 15 14" fill="none" xmlns="http://www.w3.org/2000/svg">
<path d="M7.5 1.07707C9.54279 1.07707 11.1628 2.71062 11.1628 4.68165C11.1628 5.90951 10.8558 6.53493 10.4665 7.10362C10.3781 7.23095 10.2812 7.36499 10.1756 7.50572C9.81 7.99759 9.37046 8.58997 9.0586 9.44373C8.99496 9.61974 8.91236 9.78785 8.81232 9.94492L8.77326 10.0024C8.68784 10.1281 8.58961 10.2442 8.48023 10.3485C8.19698 10.6156 7.85651 10.7707 7.5 10.7707C7.14419 10.7707 6.80302 10.6156 6.51907 10.3485C6.40966 10.2439 6.31142 10.1277 6.22605 10.0016L6.18767 9.94421C6.08769 9.78736 6.00508 9.61949 5.94139 9.44373C5.62953 8.58925 5.19 7.99758 4.82442 7.50501C4.72492 7.37292 4.62793 7.23886 4.53349 7.1029C4.14488 6.53565 3.83721 5.90951 3.83721 4.68094C3.83721 2.71062 5.45791 1.07707 7.5 1.07707ZM9.70953 10.4971C9.84349 10.2817 9.95372 10.0541 10.0381 9.82214C10.2907 9.13066 10.6088 8.70055 10.9577 8.23023C11.0763 8.07011 11.1984 7.90496 11.3226 7.72329C11.8179 6.9995 12.2093 6.16154 12.2093 4.68094C12.2093 2.07587 10.0814 0 7.5 0C4.9186 0 2.7907 2.07587 2.7907 4.68165C2.7907 6.16083 3.18209 6.9995 3.67744 7.72329C3.80163 7.90496 3.92372 8.07011 4.04233 8.23023C4.39116 8.70055 4.7093 9.13066 4.96186 9.82214C5.04628 10.0541 5.15721 10.2817 5.29047 10.4971L5.44535 12.0883C5.4968 12.6123 5.73548 13.098 6.1151 13.4512C6.49472 13.8044 6.98825 14 7.5 14C8.01175 14 8.50528 13.8044 8.8849 13.4512C9.26452 13.098 9.5032 12.6123 9.55465 12.0883L9.70953 10.4971ZM8.5514 11.5957L8.51372 11.9806C8.48899 12.2396 8.3715 12.4799 8.18413 12.6547C7.99676 12.8296 7.7529 12.9264 7.5 12.9264C7.2471 12.9264 7.00324 12.8296 6.81587 12.6547C6.6285 12.4799 6.51101 12.2396 6.48628 11.9806L6.4493 11.5957C6.76326 11.7551 7.11558 11.8477 7.5 11.8477C7.88372 11.8477 8.23674 11.7544 8.5507 11.5957M0.818372 0.552177C0.907311 0.442627 1.03487 0.373904 1.17302 0.361112C1.31118 0.348321 1.44861 0.392509 1.55512 0.483962L2.60163 1.38152C2.70444 1.47409 2.768 1.60437 2.77873 1.74452C2.78947 1.88468 2.74652 2.0236 2.65907 2.1316C2.57162 2.2396 2.4466 2.30813 2.31072 2.32254C2.17484 2.33694 2.03887 2.29609 1.93186 2.20871L0.885349 1.31115C0.778804 1.21972 0.711897 1.08848 0.699338 0.946293C0.686778 0.804105 0.729594 0.661885 0.818372 0.552177ZM14.1802 0.552895C14.2243 0.607236 14.2575 0.669985 14.278 0.737553C14.2985 0.80512 14.3058 0.876181 14.2996 0.946671C14.2934 1.01716 14.2737 1.0857 14.2418 1.14836C14.2098 1.21103 14.1661 1.26659 14.1133 1.31187L13.0667 2.20942C13.0142 2.25671 12.9531 2.2927 12.8868 2.31529C12.8206 2.33788 12.7507 2.34662 12.6811 2.34097C12.6115 2.33533 12.5438 2.31543 12.4818 2.28244C12.4198 2.24945 12.3649 2.20403 12.3202 2.14887C12.2756 2.0937 12.2421 2.0299 12.2217 1.96121C12.2014 1.89253 12.1946 1.82035 12.2017 1.74892C12.2089 1.67748 12.2298 1.60825 12.2634 1.54528C12.2969 1.4823 12.3423 1.42687 12.397 1.38224L13.4435 0.48468C13.5501 0.39331 13.6876 0.349244 13.8257 0.362171C13.9639 0.375097 14.0914 0.443239 14.1802 0.552895ZM0 4.30827C0 4.16544 0.0551286 4.02846 0.153258 3.92747C0.251388 3.82647 0.38448 3.76974 0.523256 3.76974H1.9186C2.05738 3.76974 2.19047 3.82647 2.2886 3.92747C2.38673 4.02846 2.44186 4.16544 2.44186 4.30827C2.44186 4.4511 2.38673 4.58808 2.2886 4.68907C2.19047 4.79007 2.05738 4.8468 1.9186 4.8468H0.523256C0.38448 4.8468 0.251388 4.79007 0.153258 4.68907C0.0551286 4.58808 0 4.4511 0 4.30827ZM12.5581 4.30827C12.5581 4.16544 12.6133 4.02846 12.7114 3.92747C12.8095 3.82647 12.9426 3.76974 13.0814 3.76974H14.4767C14.6155 3.76974 14.7486 3.82647 14.8467 3.92747C14.9449 4.02846 15 4.16544 15 4.30827C15 4.4511 14.9449 4.58808 14.8467 4.68907C14.7486 4.79007 14.6155 4.8468 14.4767 4.8468H13.0814C12.9426 4.8468 12.8095 4.79007 12.7114 4.68907C12.6133 4.58808 12.5581 4.4511 12.5581 4.30827ZM2.73488 6.9399C2.79692 7.0676 2.80714 7.21542 2.76332 7.35088C2.71949 7.48633 2.6252 7.59833 2.50116 7.66226L1.45465 8.20079C1.39311 8.23303 1.32597 8.25242 1.25712 8.25783C1.18826 8.26323 1.11904 8.25456 1.05346 8.23231C0.987872 8.21006 0.927216 8.17466 0.874985 8.12817C0.822755 8.08167 0.779983 8.025 0.749137 7.96141C0.71829 7.89782 0.699979 7.82857 0.695258 7.75767C0.690538 7.68676 0.699502 7.61559 0.721633 7.54827C0.743765 7.48094 0.778626 7.41879 0.824206 7.3654C0.869787 7.31201 0.925186 7.26843 0.987209 7.23718L2.03372 6.69864C2.15788 6.63485 2.30158 6.62443 2.4332 6.66968C2.56482 6.71492 2.67289 6.81212 2.73488 6.9399ZM12.2658 6.9399C12.3278 6.81231 12.4365 6.71525 12.5679 6.67001C12.6994 6.62478 12.8429 6.63508 12.967 6.69864L14.0135 7.23718C14.0755 7.26843 14.1309 7.31201 14.1765 7.3654C14.2221 7.41879 14.2569 7.48094 14.2791 7.54827C14.3012 7.61559 14.3102 7.68676 14.3054 7.75767C14.3007 7.82857 14.2824 7.89782 14.2516 7.96141C14.2207 8.025 14.1779 8.08167 14.1257 8.12817C14.0735 8.17466 14.0128 8.21006 13.9472 8.23231C13.8817 8.25456 13.8124 8.26323 13.7436 8.25783C13.6747 8.25242 13.6076 8.23303 13.546 8.20079L12.4995 7.66226C12.3754 7.59846 12.2809 7.48651 12.237 7.35105C12.193 7.21558 12.2038 7.06769 12.2658 6.9399Z" fill="white"/>
</svg>
