<svg width="19" height="16" viewBox="0 0 19 16" fill="none" xmlns="http://www.w3.org/2000/svg">
<path d="M7 14C6.04333 14 5.13917 13.8161 4.2875 13.4484C3.43583 13.0807 2.6922 12.579 2.0566 11.9434C1.421 11.3078 0.919333 10.5642 0.5516 9.7125C0.183867 8.86083 0 7.95667 0 7C0 6.03167 0.183867 5.1247 0.5516 4.2791C0.919333 3.4335 1.421 2.69267 2.0566 2.0566C2.6922 1.42053 3.43583 0.918867 4.2875 0.5516C5.13917 0.184333 6.04333 0.000466667 7 0C7.96833 0 8.87553 0.183867 9.7216 0.5516C10.5677 0.919333 11.3083 1.421 11.9434 2.0566C12.5785 2.6922 13.0802 3.43303 13.4484 4.2791C13.8166 5.12517 14.0005 6.03213 14 7C14 7.95667 13.8161 8.86083 13.4484 9.7125C13.0807 10.5642 12.579 11.308 11.9434 11.9441C11.3078 12.5802 10.567 13.0818 9.7209 13.4491C8.87483 13.8164 7.96787 14 7 14ZM7 12.565C7.30333 12.145 7.56583 11.7075 7.7875 11.2525C8.00917 10.7975 8.19 10.3133 8.33 9.8H5.67C5.81 10.3133 5.99083 10.7975 6.2125 11.2525C6.43417 11.7075 6.69667 12.145 7 12.565ZM5.18 12.285C4.97 11.9 4.78637 11.5003 4.6291 11.0859C4.47183 10.6715 4.34047 10.2429 4.235 9.8H2.17C2.50833 10.3833 2.93137 10.8908 3.4391 11.3225C3.94683 11.7542 4.52713 12.075 5.18 12.285ZM8.82 12.285C9.47333 12.075 10.0539 11.7542 10.5616 11.3225C11.0693 10.8908 11.4921 10.3833 11.83 9.8H9.765C9.66 10.2433 9.52887 10.6722 9.3716 11.0866C9.21433 11.501 9.03047 11.9005 8.82 12.285ZM1.575 8.4H3.955C3.92 8.16667 3.89387 7.93637 3.8766 7.7091C3.85933 7.48183 3.85047 7.24547 3.85 7C3.84953 6.75453 3.8584 6.5184 3.8766 6.2916C3.8948 6.0648 3.92093 5.83427 3.955 5.6H1.575C1.51667 5.83333 1.47303 6.06387 1.4441 6.2916C1.41517 6.51933 1.40047 6.75547 1.4 7C1.39953 7.24453 1.41423 7.4809 1.4441 7.7091C1.47397 7.9373 1.5176 8.1676 1.575 8.4ZM5.355 8.4H8.645C8.68 8.16667 8.70637 7.93637 8.7241 7.7091C8.74183 7.48183 8.75047 7.24547 8.75 7C8.74953 6.75453 8.74067 6.5184 8.7234 6.2916C8.70613 6.0648 8.68 5.83427 8.645 5.6H5.355C5.32 5.83333 5.29387 6.06387 5.2766 6.2916C5.25933 6.51933 5.25047 6.75547 5.25 7C5.24953 7.24453 5.2584 7.4809 5.2766 7.7091C5.2948 7.9373 5.32093 8.1676 5.355 8.4ZM10.045 8.4H12.425C12.4833 8.16667 12.5272 7.93637 12.5566 7.7091C12.586 7.48183 12.6005 7.24547 12.6 7C12.5995 6.75453 12.5851 6.5184 12.5566 6.2916C12.5281 6.0648 12.4843 5.83427 12.425 5.6H10.045C10.08 5.83333 10.1064 6.06387 10.1241 6.2916C10.1418 6.51933 10.1505 6.75547 10.15 7C10.1495 7.24453 10.1407 7.4809 10.1234 7.7091C10.1061 7.9373 10.08 8.1676 10.045 8.4ZM9.765 4.2H11.83C11.4917 3.61667 11.0689 3.10917 10.5616 2.6775C10.0543 2.24583 9.4738 1.925 8.82 1.715C9.03 2.1 9.21387 2.4997 9.3716 2.9141C9.52933 3.3285 9.66047 3.75713 9.765 4.2ZM5.67 4.2H8.33C8.19 3.68667 8.00917 3.2025 7.7875 2.7475C7.56583 2.2925 7.30333 1.855 7 1.435C6.69667 1.855 6.43417 2.2925 6.2125 2.7475C5.99083 3.2025 5.81 3.68667 5.67 4.2ZM2.17 4.2H4.235C4.34 3.75667 4.47137 3.3278 4.6291 2.9134C4.78683 2.499 4.97047 2.09953 5.18 1.715C4.52667 1.925 3.94613 2.24583 3.4384 2.6775C2.93067 3.10917 2.50787 3.61667 2.17 4.2Z" fill="white"/>
<path d="M8.02649 13.0953C7.85092 15.0749 8.58637 15.7411 9.10305 15.8735C9.98094 16.0984 10.2004 15.5699 10.2004 15.5699C10.2004 15.5699 11.0783 13.7702 11.2978 13.0953L13.7119 12.949L16.1469 13.0953C16.2932 13.6202 16.6736 14.85 17.0248 15.5699C17.3759 16.2897 18.1057 15.9157 18.3416 15.7948C18.7805 15.5699 19 14.4451 19 13.5453C19 12.4205 18.7805 9.94594 17.6832 8.59621C16.8053 7.51642 15.8543 8.14629 15.4885 8.5962L11.7575 8.59621C11.6112 8.29627 10.9213 7.74303 9.98094 8.22496C9.04058 8.70688 8.24596 10.6208 8.02649 13.0953Z" fill="white"/>
</svg>
