<?xml version="1.0" encoding="UTF-8"?>
<svg id="svg2" xmlns="http://www.w3.org/2000/svg" viewBox="0 0 350 350">
  <defs>
    <style>
      .cls-1 {
        fill: #fff;
      }
    </style>
  </defs>
  <g>
    <path class="cls-1" d="M335.6,188.07c.76,0,1.47-.29,2-.83.53-.54.84-1.25.84-2.01s-.31-1.47-.84-2c-.53-.54-1.25-.83-2-.83-1.57,0-2.84,1.27-2.84,2.83,0,.76.29,1.47.83,2.01.54.54,1.25.83,2.01.83M333.23,185.23c0-.63.25-1.22.7-1.66.44-.45,1.04-.69,1.67-.69s1.21.24,1.67.69c.44.45.68,1.03.68,1.66,0,1.3-1.05,2.36-2.35,2.36-.63,0-1.23-.25-1.67-.69-.45-.45-.7-1.04-.7-1.67"/>
    <path class="cls-1" d="M337,186.55l-.09-.14-.03-.24-.02-.41c0-.19-.04-.33-.11-.42l-.19-.15.24-.23c.09-.13.12-.29.12-.48,0-.37-.15-.64-.46-.78-.16-.07-.36-.11-.6-.11h-1.47v3.16h.55v-1.3h.86l.34.05c.11.06.17.17.18.33v.51s.04.25.04.25l.04.12.02.04h.61v-.18l-.04-.02ZM336.37,184.52c0,.18-.04.29-.14.36-.1.07-.24.1-.41.1h-.88v-.89h.93l.31.06c.12.06.19.19.19.38"/>
    <path class="cls-1" d="M104.07,151.98h-15.35s-.11.1-.11.1v35.88l.11.11h6.22l.11-.11v-31.98l.04-.06h7.11c2.59-.01,4.01,2.59,4.01,7.34s-1.42,7.35-4.01,7.35h-4.27s-.11.1-.11.1v3.72l.11.12h6.15c2.14,0,4.26-1,5.81-2.73,1.82-2.04,2.78-4.99,2.78-8.53,0-6.87-3.37-11.31-8.58-11.31"/>
    <polygon class="cls-1" points="122.8 151.98 116.59 151.98 116.48 152.08 116.48 187.96 116.59 188.07 122.8 188.07 122.92 187.96 122.92 152.08 122.8 151.98"/>
    <path class="cls-1" d="M149.95,160.71l-.12-.12h-11.09c-9.93,0-11.2,7.31-11.2,13.71v5.54c.01,4.76,2.97,8.22,7.05,8.22h6.04l.11-.11v-3.72l-.11-.11h-4.32c-1-.02-2.34-.44-2.34-3.85v-5.98c0-3.98.38-6.51,1.2-7.96.89-1.6,2.3-1.82,3.56-1.82h4.74s.05.06.05.06v23.38l.1.11h6.22l.11-.11v-27.25Z"/>
    <path class="cls-1" d="M194.69,167l-3.07-.24c-2.29-.19-4-1.46-4-5.25,0-4.4,1.99-5.59,4.6-5.59h8.48l.11-.11v-3.74l-.11-.1h-9.35c-5.79,0-9.91,3.4-9.91,10.17v.28c0,5.37,3.29,9.22,8.19,9.59l3.06.23c2.31.18,3.75,2.24,3.75,5.41v.89c0,1.98-.48,5.58-4.71,5.58h-8.8l-.11.11v3.72l.11.11h10.91c3.38,0,9.03-1.36,9.03-10.54,0-3.3-.77-5.93-2.29-7.82-1.32-1.62-3.24-2.5-5.89-2.71"/>
    <path class="cls-1" d="M245.65,160.71l-.11-.12h-11.09c-9.92,0-11.19,7.31-11.19,13.71v5.54c0,4.76,2.96,8.22,7.04,8.22h6.04l.11-.11v-3.72l-.11-.11h-4.32c-1-.02-2.34-.44-2.34-3.85v-5.98c0-3.98.37-6.51,1.19-7.96.89-1.6,2.31-1.82,3.56-1.82h4.74s.04.06.04.06v23.38s.1.11.1.11h6.22l.11-.11v-27.25Z"/>
    <path class="cls-1" d="M220.65,160.59h-6.73l-.05-.04v-4.51l-.1-.11h-6.22l-.11.11v23.81c0,4.76,2.96,8.21,7.05,8.21h4.46l.1-.11v-3.72l-.1-.11h-2.74c-.7-.02-2.34-.05-2.34-3.57v-16.01l.05-.04c2.04,0,6.73,0,6.73,0l.11-.11v-3.7l-.11-.12Z"/>
    <path class="cls-1" d="M264.07,160.59h-6.73l-.04-.04v-4.51l-.11-.11h-6.21l-.12.11v23.81c0,4.76,2.97,8.21,7.06,8.21h4.45l.12-.11v-3.72l-.12-.11h-2.75c-.68-.02-2.32-.05-2.32-3.57v-16.01l.04-.04c2.06,0,6.73,0,6.73,0l.11-.11v-3.7l-.11-.12Z"/>
    <polygon class="cls-1" points="274.35 160.59 268.13 160.59 268.02 160.71 268.02 187.96 268.13 188.07 274.35 188.07 274.46 187.96 274.46 160.71 274.35 160.59"/>
    <polygon class="cls-1" points="274.35 151.98 268.13 151.98 268.02 152.08 268.02 157.29 268.13 157.4 274.35 157.4 274.46 157.29 274.46 152.08 274.35 151.98"/>
    <path class="cls-1" d="M317.35,160.59h-11.1l-.11.12v27.25s.11.11.11.11h6.21l.11-.11v-23.39s.03-.04.03-.04h4.74c1.27,0,2.68.2,3.57,1.68.82,1.34,1.21,3.68,1.21,7.38,0,.17-.01,14.37-.01,14.37l.1.11h6.21l.11-.11v-13.66c0-6.4-1.27-13.71-11.19-13.71"/>
    <path class="cls-1" d="M290.31,160.59c-10.38,0-11.71,7.35-11.71,13.75s1.34,13.75,11.71,13.75,11.72-7.35,11.72-13.75-1.33-13.75-11.71-13.75M294.26,182.33c-.99,1.61-2.55,1.82-3.95,1.82s-2.96-.22-3.94-1.82c-.89-1.46-1.31-3.99-1.31-7.99v-.03c0-4.73.59-7.41,1.89-8.7.77-.76,1.78-1.08,3.36-1.08s2.59.32,3.37,1.08c1.3,1.28,1.89,3.98,1.89,8.73,0,4-.41,6.54-1.31,7.99"/>
    <polygon class="cls-1" points="153.45 160.59 153.38 160.69 162.59 187.71 162.59 187.93 157.41 201.31 157.47 201.42 162.88 201.42 163.03 201.31 179.23 160.69 179.17 160.59 173.26 160.59 173.11 160.69 166.25 178.45 166.16 178.45 160.13 160.69 159.98 160.59 153.45 160.59"/>
  </g>
  <g>
    <path class="cls-1" d="M41.6,149.17v36.99l8.37,2.66v-31.02c0-1.45.65-2.42,1.7-2.09,1.36.38,1.63,1.72,1.63,3.17v12.39c5.22,2.52,9.32,0,9.32-6.65s-2.4-9.85-9.49-12.28c-2.79-.94-7.97-2.5-11.53-3.16"/>
    <path class="cls-1" d="M51.55,183.41l13.46-4.79c1.53-.55,1.76-1.32.52-1.73-1.24-.41-3.48-.29-5.01.26l-8.97,3.16v-5.03l.52-.18s2.59-.91,6.23-1.32c3.65-.4,8.11.06,11.61,1.38,3.95,1.25,4.39,3.08,3.39,4.35-1,1.27-3.46,2.17-3.46,2.17l-18.29,6.57v-4.85Z"/>
    <path class="cls-1" d="M26.24,182.9c-4.05-1.14-4.73-3.52-2.88-4.89,1.71-1.27,4.62-2.22,4.62-2.22l12-4.26v4.86l-8.63,3.09c-1.53.55-1.76,1.32-.52,1.73,1.24.4,3.49.29,5.02-.26l4.14-1.5v4.35c-.26.05-.55.09-.83.14-4.14.67-8.55.39-12.9-1.04"/>
    <path class="cls-1" d="M71.35,190.49c.66,0,1.28-.26,1.74-.72.46-.46.72-1.08.72-1.74s-.26-1.28-.72-1.74c-.47-.47-1.09-.72-1.74-.72-1.36,0-2.47,1.11-2.47,2.47,0,.66.26,1.28.72,1.74.46.47,1.08.72,1.74.72M69.3,188.02c0-.55.21-1.07.6-1.45.38-.39.9-.6,1.45-.6s1.06.21,1.45.6c.39.39.61.9.61,1.45,0,1.13-.92,2.05-2.05,2.05-.55,0-1.06-.21-1.45-.6-.39-.38-.6-.9-.6-1.45"/>
    <path class="cls-1" d="M72.56,189.17l-.08-.12-.02-.21-.02-.35c0-.17-.04-.29-.09-.36l-.17-.14.21-.2c.07-.11.11-.25.11-.42,0-.33-.14-.55-.41-.68-.14-.06-.31-.09-.52-.09h-1.28v2.74h.48v-1.12h.75l.29.04.15.29.02.44.02.21.03.11v.03h.55v-.16h-.04ZM72.02,187.4l-.12.31-.36.09h-.76v-.77h.81l.27.05c.11.06.17.16.17.33"/>
  </g>
</svg>