<svg width="16" height="12" viewBox="0 0 16 12" fill="none" xmlns="http://www.w3.org/2000/svg">
<path d="M4 12C2.89697 12 1.95467 11.6062 1.17309 10.8187C0.391515 10.0312 0.000484848 9.06875 0 7.93125C0 6.95625 0.284848 6.0875 0.854545 5.325C1.42424 4.5625 2.1697 4.075 3.09091 3.8625C3.39394 2.7125 4 1.78125 4.90909 1.06875C5.81818 0.35625 6.84849 0 8 0C9.41818 0 10.6213 0.5095 11.6095 1.5285C12.5976 2.5475 13.0914 3.788 13.0909 5.25C13.9273 5.35 14.6213 5.722 15.1731 6.366C15.7248 7.01 16.0005 7.763 16 8.625C16 9.5625 15.6819 10.3595 15.0458 11.016C14.4097 11.6725 13.6368 12.0005 12.7273 12H4Z" fill="white"/>
<path d="M5.01445 7.54767C4.91868 8.53747 5.31984 8.87053 5.60166 8.93673C6.08051 9.04921 6.20023 8.78493 6.20023 8.78493C6.20023 8.78493 6.67906 7.8851 6.79878 7.54767L8.1156 7.47452L9.44376 7.54767C9.52357 7.81012 9.73106 8.425 9.9226 8.78493C10.1141 9.14486 10.5122 8.95786 10.6409 8.89741C10.8803 8.78493 11 8.22254 11 7.77263C11 7.21024 10.8803 5.97297 10.2817 5.2981C9.80289 4.75821 9.28414 5.07315 9.08463 5.2981L7.04954 5.2981C6.96973 5.14813 6.59343 4.87151 6.08051 5.11248C5.56759 5.35344 5.13416 6.31041 5.01445 7.54767Z" fill="#363636"/>
</svg>
