<svg width="49" height="61" viewBox="0 0 49 61" fill="none" xmlns="http://www.w3.org/2000/svg">
<path d="M32.2863 33.7675C22.9059 32.5317 17.9314 38.4936 18.2995 45.1312H1V1H32.2863V32.2148V33.7675Z" fill="#858585"/>
<path d="M17.5633 51.5895V48.8985H1V51.5895H17.5633Z" fill="#858585"/>
<path d="M32.2863 33.7675C22.9059 32.5317 17.9314 38.4936 18.2995 45.1312H1V1H32.2863V32.2148V33.7675Z" stroke="#858585" stroke-linecap="round"/>
<path d="M17.5633 51.5895V48.8985H1V51.5895H17.5633Z" stroke="#858585" stroke-linecap="round"/>
<path d="M26.1861 60.3104C21.8296 60.3104 21.4192 54.3549 22.1453 51.3772C22.8714 48.3994 23.7427 45.2563 23.8879 42.9402C24.0332 41.4514 25.0207 38.4736 27.8089 38.4736C30.5972 38.4736 31.5847 40.7897 31.7299 41.9477H38.8203C38.8203 40.4171 39.6916 38.4738 42.3056 38.4736C44.4839 38.4735 46.1068 40.4173 46.1068 42.9402C46.1068 46.1412 46.8329 49.8883 47.4138 51.3772C49.1565 57.8289 46.5425 60.3104 45.6712 60.3104C42.1859 60.7074 41.1439 55.8438 40.563 53.3623H30.1071C28.9453 55.6783 28.6258 60.3104 26.1861 60.3104Z" fill="#858585" stroke="#858585" stroke-linecap="round"/>
</svg>
