<svg width="59" height="54" viewBox="0 0 59 54" fill="none" xmlns="http://www.w3.org/2000/svg">
<path d="M39.5 30C26.3 24.8 24 35.8333 24.5 42H1V1H43.5V30H39.5Z" fill="#858585"/>
<path d="M23.5 48V45.5H1V48H23.5Z" fill="#858585"/>
<path d="M39.5 30C26.3 24.8 24 35.8333 24.5 42H1V1H43.5V30H39.5Z" stroke="#858585" stroke-linecap="round"/>
<path d="M23.5 48V45.5H1V48H23.5Z" stroke="#858585" stroke-linecap="round"/>
<path d="M32.9678 53C27.9679 53 27.4969 47 28.3302 44C29.1635 41 30.1635 37.8334 30.3302 35.5C30.4969 34 31.6302 31 34.8302 31C38.0302 31 39.1636 33.3333 39.3302 34.5H47.4677C47.4677 32.958 48.4677 31.0002 51.4677 31C53.9677 30.9998 55.8302 32.9582 55.8302 35.5C55.8302 38.7249 56.6636 42.5 57.3302 44C59.3302 50.5 56.3302 53 55.3302 53C51.3302 53.4 50.1344 48.5 49.4678 46H37.4678C36.1344 48.3333 35.7678 53 32.9678 53Z" fill="#858585" stroke="#858585" stroke-linecap="round"/>
</svg>
