<svg width="54" height="72" viewBox="0 0 54 72" fill="none" xmlns="http://www.w3.org/2000/svg">
<path d="M1 68.4893V3.76587H12.0496" stroke="#858585" stroke-width="2" stroke-linecap="round"/>
<path d="M30.2816 46.9149C22.3259 49.1277 20.3369 60.3759 20.3369 65.7234L5.97241 68.4894L11.4972 1L30.2816 4.31915V46.9149Z" fill="#858585" stroke="#858585" stroke-width="0.5" stroke-linecap="round"/>
<path d="M25.3759 63.8703C24.9339 68.7384 26.7853 70.3764 28.086 70.702C30.2959 71.2552 30.8484 69.9554 30.8484 69.9554C30.8484 69.9554 33.0583 65.5299 33.6108 63.8703L39.6881 63.5105L45.8177 63.8703C46.1861 65.1611 47.1437 68.1852 48.0277 69.9554C48.9116 71.7257 50.7487 70.806 51.3426 70.5086C52.4475 69.9554 53 67.1895 53 64.9767C53 62.2108 52.4475 56.1256 49.6851 52.8065C47.4752 50.1512 45.0811 51.7001 44.1603 52.8065L34.7681 52.8065C34.3998 52.0689 32.6631 50.7084 30.2959 51.8935C27.9287 53.0786 25.9284 57.7852 25.3759 63.8703Z" fill="#858585" stroke="#858585" stroke-width="0.5" stroke-linecap="round"/>
<path d="M5.41985 3.76587C3.65191 3.76587 1.73664 7.45381 1 9.29778V3.76587H5.41985Z" fill="#858585" stroke="#858585" stroke-linecap="round"/>
</svg>
