<svg width="13" height="17" viewBox="0 0 13 17" fill="none" xmlns="http://www.w3.org/2000/svg">
<path d="M1 15.436V0.632568H3.52725" stroke="white" stroke-width="0.3" stroke-linecap="round"/>
<path d="M7.69715 10.5016C5.87753 11.0077 5.42263 13.5803 5.42263 14.8034L2.13721 15.436L3.40083 0L7.69715 0.759149V10.5016Z" fill="white"/>
<path d="M6.57519 14.3795C6.4741 15.4929 6.89754 15.8676 7.19503 15.942C7.70048 16.0686 7.82685 15.7713 7.82685 15.7713C7.82685 15.7713 8.3323 14.7591 8.45866 14.3795L9.84864 14.2972L11.2506 14.3795C11.3348 14.6747 11.5539 15.3664 11.7561 15.7713C11.9582 16.1762 12.3784 15.9658 12.5142 15.8978C12.767 15.7713 12.8933 15.1387 12.8933 14.6326C12.8933 13.9999 12.767 12.6081 12.1351 11.849C11.6297 11.2417 11.0821 11.596 10.8715 11.849L8.72336 11.849C8.63912 11.6803 8.2419 11.3691 7.70048 11.6402C7.15907 11.9113 6.70155 12.9877 6.57519 14.3795Z" fill="white"/>
<path d="M2.0109 0.632568C1.60654 0.632568 1.16848 1.47607 1 1.89782V0.632568H2.0109Z" fill="white"/>
</svg>
