<svg width="20" height="20" viewBox="0 0 20 20" fill="none" xmlns="http://www.w3.org/2000/svg">
<path d="M1.04335 14.643C0.756045 17.6124 1.95951 18.6116 2.80499 18.8102C4.24153 19.1476 4.60068 18.3548 4.60068 18.3548C4.60068 18.3548 6.03719 15.6553 6.39633 14.643L10.3468 14.4236L14.3313 14.643C14.5707 15.4304 15.1932 17.275 15.7678 18.3548C16.3424 19.4346 17.5365 18.8736 17.9226 18.6922C18.6409 18.3548 19 16.6676 19 15.3179C19 13.6307 18.6409 9.91891 16.8452 7.89431C15.4087 6.27463 13.8524 7.21944 13.2539 7.8943L7.14863 7.89431C6.9092 7.4444 5.78029 6.61454 4.24153 7.33743C2.70278 8.06033 1.40248 10.9312 1.04335 14.643Z" stroke="white" stroke-linecap="round"/>
<circle cx="10" cy="5" r="1" fill="white"/>
<circle cx="10" cy="1" r="1" fill="white"/>
</svg>
