<svg width="51" height="67" viewBox="0 0 51 67" fill="none" xmlns="http://www.w3.org/2000/svg">
<path d="M42.5256 48.2838C41.821 49.2114 40.0956 49.8725 40.0956 49.8725L27.262 54.6849V51.135L36.707 47.6209C37.7786 47.2212 37.9425 46.654 37.0724 46.3568C36.2023 46.0595 34.6276 46.1432 33.5543 46.5464L27.262 48.8595V45.178L27.6242 45.0482C27.6242 45.0482 29.443 44.3768 31.9992 44.0813C34.5571 43.7874 37.6885 44.1223 40.1464 45.0943C42.9156 46.0083 43.227 47.3561 42.5256 48.2838ZM28.4828 42.2397V33.1667C28.4828 32.1007 28.2944 31.1201 27.3358 30.8434C26.6033 30.5974 26.1478 31.3081 26.1478 32.3723V55.0983L20.2767 53.1525V26.0566C22.7723 26.5401 26.41 27.6847 28.3648 28.3714C33.338 30.1532 35.0241 32.3723 35.0241 37.3692C35.0241 42.2397 32.1434 44.0864 28.4828 42.2414M9.50284 50.766C6.65822 49.9289 6.18466 48.1864 7.4808 47.1836C8.67862 46.2577 10.717 45.5607 10.717 45.5607L19.1362 42.4344V45.998L13.0766 48.2616C12.0066 48.6613 11.8428 49.2285 12.7112 49.5257C13.583 49.8247 15.1577 49.7393 16.2293 49.3378L19.1362 48.2376V51.4237L18.5561 51.5262C15.6492 52.0216 12.5539 51.8149 9.50284 50.766Z" fill="#858585"/>
<path d="M2 58.5566V18.0566H47.5612L49 58.5566L38.9286 64.5566L2 58.5566Z" stroke="#858585" stroke-width="3" stroke-linecap="round"/>
<path d="M19.7449 1.05656C14.3735 1.05656 13.3503 12.0566 13.5102 17.5566H27.4184C27.0347 3.15656 22.1429 0.556556 19.7449 1.05656Z" stroke="#858585" stroke-width="2" stroke-linecap="round"/>
<path d="M27.4337 1.1132C22.0623 1.1132 21.0392 12.1132 21.1991 17.6132H35.1072C34.7235 3.2132 29.8317 0.613197 27.4337 1.1132Z" stroke="#858585" stroke-width="2" stroke-linecap="round"/>
</svg>
