<svg width="114" height="18" viewBox="0 0 114 18" fill="none" xmlns="http://www.w3.org/2000/svg">
<path d="M8.71468 0.878116C8.80449 0.601723 9.19551 0.601722 9.28532 0.878115L10.9533 6.01155C10.9934 6.13516 11.1086 6.21885 11.2386 6.21885H16.6362C16.9268 6.21885 17.0477 6.59073 16.8125 6.76155L12.4458 9.93419C12.3406 10.0106 12.2966 10.146 12.3368 10.2696L14.0048 15.403C14.0946 15.6794 13.7782 15.9093 13.5431 15.7384L9.17634 12.5658C9.07119 12.4894 8.92881 12.4894 8.82366 12.5658L4.4569 15.7384C4.22179 15.9093 3.90544 15.6794 3.99525 15.403L5.6632 10.2696C5.70337 10.146 5.65937 10.0106 5.55422 9.93419L1.18746 6.76155C0.952347 6.59073 1.07318 6.21885 1.3638 6.21885H6.76141C6.89138 6.21885 7.00657 6.13516 7.04673 6.01155L8.71468 0.878116Z" fill="white"/>
<path d="M32.7147 0.878116C32.8045 0.601723 33.1955 0.601722 33.2853 0.878115L34.9533 6.01155C34.9934 6.13516 35.1086 6.21885 35.2386 6.21885H40.6362C40.9268 6.21885 41.0477 6.59073 40.8125 6.76155L36.4458 9.93419C36.3406 10.0106 36.2966 10.146 36.3368 10.2696L38.0048 15.403C38.0946 15.6794 37.7782 15.9093 37.5431 15.7384L33.1763 12.5658C33.0712 12.4894 32.9288 12.4894 32.8237 12.5658L28.4569 15.7384C28.2218 15.9093 27.9054 15.6794 27.9952 15.403L29.6632 10.2696C29.7034 10.146 29.6594 10.0106 29.5542 9.93419L25.1875 6.76155C24.9523 6.59073 25.0732 6.21885 25.3638 6.21885H30.7614C30.8914 6.21885 31.0066 6.13516 31.0467 6.01155L32.7147 0.878116Z" fill="white"/>
<path d="M56.7147 0.878116C56.8045 0.601723 57.1955 0.601722 57.2853 0.878115L58.9533 6.01155C58.9934 6.13516 59.1086 6.21885 59.2386 6.21885H64.6362C64.9268 6.21885 65.0477 6.59073 64.8125 6.76155L60.4458 9.93419C60.3406 10.0106 60.2966 10.146 60.3368 10.2696L62.0048 15.403C62.0946 15.6794 61.7782 15.9093 61.5431 15.7384L57.1763 12.5658C57.0712 12.4894 56.9288 12.4894 56.8237 12.5658L52.4569 15.7384C52.2218 15.9093 51.9054 15.6794 51.9952 15.403L53.6632 10.2696C53.7034 10.146 53.6594 10.0106 53.5542 9.93419L49.1875 6.76155C48.9523 6.59073 49.0732 6.21885 49.3638 6.21885H54.7614C54.8914 6.21885 55.0066 6.13516 55.0467 6.01155L56.7147 0.878116Z" fill="white"/>
<path d="M80.7147 0.878116C80.8045 0.601723 81.1955 0.601722 81.2853 0.878115L82.9533 6.01155C82.9934 6.13516 83.1086 6.21885 83.2386 6.21885H88.6362C88.9268 6.21885 89.0477 6.59073 88.8125 6.76155L84.4458 9.93419C84.3406 10.0106 84.2966 10.146 84.3368 10.2696L86.0048 15.403C86.0946 15.6794 85.7782 15.9093 85.5431 15.7384L81.1763 12.5658C81.0712 12.4894 80.9288 12.4894 80.8237 12.5658L76.4569 15.7384C76.2218 15.9093 75.9054 15.6794 75.9952 15.403L77.6632 10.2696C77.7034 10.146 77.6594 10.0106 77.5542 9.93419L73.1875 6.76155C72.9523 6.59073 73.0732 6.21885 73.3638 6.21885H78.7614C78.8914 6.21885 79.0066 6.13516 79.0467 6.01155L80.7147 0.878116Z" fill="white"/>
<path d="M103.522 6.16606L105 1.61803L106.478 6.16606C106.585 6.49568 106.892 6.71885 107.239 6.71885H112.021L108.152 9.52968C107.871 9.7334 107.754 10.0945 107.861 10.4241L109.339 14.9721L105.47 12.1613C105.19 11.9576 104.81 11.9576 104.53 12.1613L100.661 14.9721L102.139 10.4241C102.246 10.0945 102.129 9.7334 101.848 9.52968L97.9793 6.71885H102.761C103.108 6.71885 103.415 6.49568 103.522 6.16606Z" stroke="white"/>
<path d="M105 3V11.5L101.122 14.878L102 9.50001L98.5 7.00001L104 6L105 3Z" fill="white"/>
</svg>
