<svg width="47" height="47" viewBox="0 0 47 47" fill="none" xmlns="http://www.w3.org/2000/svg">
<circle cx="23.5" cy="23.5" r="21.5" stroke="#858585" stroke-width="4"/>
<path d="M31.6197 16.382C31.6197 22.3167 25.0256 21.9137 25.0256 26.0166V26.0388C25.0256 26.5122 24.6419 26.8958 24.1686 26.8958H20.5708C20.0974 26.8958 19.7138 26.5122 19.7138 26.0388V25.7968C19.7138 19.4592 25.5019 19.8622 25.5019 16.8948C25.5019 15.6127 24.5494 14.8434 22.9742 14.8434C21.6927 14.8434 20.3831 15.4037 19.1926 16.549C18.8876 16.8425 18.4105 16.861 18.0771 16.6002L15.711 14.7495C15.3122 14.4376 15.266 13.8466 15.6185 13.4831C17.5939 11.4467 20.1609 10.2275 23.5603 10.2275C28.9454 10.2276 31.6197 13.1216 31.6197 16.382ZM25.7582 33.5631C25.7582 35.3948 24.2929 36.8968 22.4246 36.8968C20.5929 36.8968 19.091 35.3948 19.091 33.5631C19.091 31.7315 20.5929 30.2295 22.4246 30.2295C24.293 30.2295 25.7582 31.7315 25.7582 33.5631Z" fill="#858585"/>
</svg>
