<svg width="24" height="18" viewBox="0 0 24 18" fill="none" xmlns="http://www.w3.org/2000/svg">
<path d="M0.0289007 14.5133C-0.162637 16.4929 0.639672 17.159 1.20333 17.2914C2.16102 17.5164 2.40045 16.9878 2.40045 16.9878C2.40045 16.9878 3.35813 15.1882 3.59755 14.5133L6.23119 14.367L8.88752 14.5133C9.04713 15.0382 9.46213 16.268 9.8452 16.9878C10.2283 17.7077 11.0244 17.3337 11.2817 17.2128C11.7606 16.9878 12 15.8631 12 14.9632C12 13.8384 11.7606 11.3639 10.5635 10.0142C9.60578 8.93439 8.56829 9.56426 8.16925 10.0142L4.09908 10.0142C3.93947 9.71423 3.18686 9.161 2.16102 9.64292C1.13518 10.1249 0.268322 12.0388 0.0289007 14.5133Z" fill="white"/>
<path d="M3 13.4179L3.73562 12.982C3.96757 12.8445 4.26177 12.8728 4.46329 13.0519V13.0519C4.69809 13.2606 5.05192 13.2606 5.28673 13.0519L5.47716 12.8827C5.78519 12.6089 6.23914 12.5774 6.58204 12.806L7.11196 13.1592C7.34057 13.3116 7.64321 13.2906 7.84856 13.1081V13.1081C8.0775 12.9046 8.4225 12.9046 8.65144 13.1081L9 13.4179" stroke="black" stroke-width="0.3"/>
<path d="M3 11.4179L3.66637 11.023C3.93957 10.8611 4.2861 10.8944 4.52345 11.1054V11.1054C4.73752 11.2957 5.04309 11.3432 5.30483 11.2269L5.64563 11.0754C5.87361 10.9741 6.13122 10.9617 6.36789 11.0406L7.12484 11.2929C7.35695 11.3702 7.6127 11.3177 7.79556 11.1552V11.1552C8.05473 10.9248 8.44527 10.9248 8.70444 11.1552L9 11.4179" stroke="black" stroke-width="0.3"/>
<path d="M9.00006 8.91797C8.97118 9.32264 9.43635 8.78557 10 8.91797C10.9577 9.14292 11.5 9.91797 11.5 9.91797C11.5 9.91797 12.3582 9.18817 12.5976 8.5133L15.2312 8.36701L17.8876 8.5133C18.0472 9.0382 18.4622 10.268 18.8452 10.9878C19.2283 11.7077 20.0244 11.3337 20.2818 11.2128C20.7606 10.9878 21 9.86305 21 8.96323C21 7.83845 20.7606 5.36391 19.5635 4.01418C18.6058 2.93439 17.5683 3.56426 17.1693 4.01417L13.0991 4.01418C12.9395 3.71423 12.1869 3.161 11.1611 3.64292C10.1352 4.12485 9.17704 6.4382 9.00006 8.91797Z" fill="white"/>
<circle cx="12" cy="5.41797" r="1" fill="black"/>
<circle cx="18" cy="5.41797" r="1" fill="black"/>
<path d="M8.72272 3.64415L8.67527 3.50703C8.50733 3.02176 8.80813 2.50025 9.31228 2.40263L9.49816 2.36664C9.74374 2.31908 9.93134 2.11972 9.96388 1.87171V1.87171C10.0056 1.55348 10.2975 1.32936 10.6157 1.37112L11.031 1.42562" stroke="white" stroke-width="0.3"/>
<path d="M7.59489 2.47902V2.47902C7.36483 2.07063 7.63328 1.56096 8.1002 1.51968L8.52769 1.48188C8.76908 1.46054 8.96326 1.2744 8.99479 1.03413V1.03413C9.02453 0.807479 9.19958 0.627261 9.42527 0.590938L10.5 0.417969" stroke="white" stroke-width="0.3"/>
<path d="M21.3083 4.06211L21.3557 3.925C21.5237 3.43973 21.2229 2.91822 20.7187 2.8206L20.5328 2.7846C20.2873 2.73705 20.0997 2.53769 20.0671 2.28968V2.28968C20.0254 1.97145 19.7335 1.74733 19.4153 1.78909L19 1.84359" stroke="white" stroke-width="0.3"/>
<path d="M22.4362 2.89699V2.89699C22.6663 2.4886 22.3978 1.97893 21.9309 1.93765L21.5034 1.89985C21.262 1.87851 21.0679 1.69237 21.0363 1.4521V1.4521C21.0066 1.22545 20.8315 1.04523 20.6059 1.00891L19.5311 0.835937" stroke="white" stroke-width="0.3"/>
</svg>
